# xmcd
#
# Track frame offsets:
#	150
#	14885
#	28182
#	42792
#	54136
#	69179
#	81887
#	93819
#	109187
#	120537
#
# Disc length: 1817 seconds
#
# Revision: 1
# Processed by: cddbd v1.5.1PL2 Copyright (c) Steve Scherf et al.
# Submitted via: audiograbber 1.83.01
#
DISCID=7607170a
DTITLE=Various 30 #1 Country Hits - Country Music #1s
DYEAR=1900
DGENRE=
TTITLE0=George Jones - He Stopped Loving Her Today
TTITLE1=Conway Twitty - After All the Good Is Gone
TTITLE2=Jeannie C. Riley - Harper Valley P.T.A.
TTITLE3=Ray Price - My Shoes Keep Walking Back To You
TTITLE4=Charlie Rich and Janie Fricke - On My Knees
TTITLE5=Carl Smith - Let Old Mother Nature Have Her Way
TTITLE6=Jack Greene - There Goes My Everything
TTITLE7=Lee Greenwood - I Don't Mind The Thorns (If You're The Rose)
TTITLE8=Porter Wagoner - Misery Loves Company
TTITLE9=Ernest Tubb and Johnny Cash - Soldier's Last Letter
EXTD=
EXTT0=
EXTT1=
EXTT2=
EXTT3=
EXTT4=
EXTT5=
EXTT6=
EXTT7=
EXTT8=
EXTT9=
PLAYORDER=
